<mxfile host="app.diagrams.net" agent="Mozilla/5.0 (Macintosh; Intel Mac OS X 10.15; rv:131.0) Gecko/20100101 Firefox/131.0" version="24.7.17">
  <diagram name="Page-1" id="822b0af5-4adb-64df-f703-e8dfc1f81529">
    <mxGraphModel dx="830" dy="513" grid="1" gridSize="10" guides="1" tooltips="1" connect="1" arrows="1" fold="1" page="1" pageScale="1" pageWidth="1100" pageHeight="850" background="none" math="0" shadow="0">
      <root>
        <mxCell id="0" />
        <mxCell id="1" parent="0" />
        <mxCell id="mQRKh_SeK4KCM8E4RZQr-3" value="" style="edgeStyle=orthogonalEdgeStyle;rounded=0;orthogonalLoop=1;jettySize=auto;html=1;" edge="1" parent="1" source="mQRKh_SeK4KCM8E4RZQr-1" target="mQRKh_SeK4KCM8E4RZQr-2">
          <mxGeometry relative="1" as="geometry" />
        </mxCell>
        <mxCell id="mQRKh_SeK4KCM8E4RZQr-1" value="TrueNAS" style="image;points=[];aspect=fixed;html=1;align=center;shadow=0;dashed=0;image=img/lib/allied_telesis/computer_and_terminals/Server_Desktop.svg;" vertex="1" parent="1">
          <mxGeometry x="860" y="150" width="42.599999999999994" height="54" as="geometry" />
        </mxCell>
        <mxCell id="mQRKh_SeK4KCM8E4RZQr-2" value="&lt;div&gt;Storage&lt;/div&gt;&lt;div&gt;evt nextcloud og plex&lt;/div&gt;&lt;div&gt;&lt;br&gt;&lt;/div&gt;" style="whiteSpace=wrap;html=1;verticalAlign=top;labelBackgroundColor=default;shadow=0;dashed=0;" vertex="1" parent="1">
          <mxGeometry x="821.3" y="250" width="120" height="60" as="geometry" />
        </mxCell>
        <mxCell id="mQRKh_SeK4KCM8E4RZQr-6" value="" style="edgeStyle=orthogonalEdgeStyle;rounded=0;orthogonalLoop=1;jettySize=auto;html=1;" edge="1" parent="1" source="mQRKh_SeK4KCM8E4RZQr-4" target="mQRKh_SeK4KCM8E4RZQr-5">
          <mxGeometry relative="1" as="geometry" />
        </mxCell>
        <mxCell id="mQRKh_SeK4KCM8E4RZQr-4" value="Dockermachine" style="image;points=[];aspect=fixed;html=1;align=center;shadow=0;dashed=0;image=img/lib/allied_telesis/computer_and_terminals/Server_Desktop.svg;" vertex="1" parent="1">
          <mxGeometry x="640" y="150" width="42.599999999999994" height="54" as="geometry" />
        </mxCell>
        <mxCell id="mQRKh_SeK4KCM8E4RZQr-5" value="&lt;div&gt;Transmission&lt;/div&gt;&lt;div&gt;Sonarr&lt;/div&gt;&lt;div&gt;Radarr&lt;/div&gt;&lt;div&gt;Jacket&lt;/div&gt;&lt;div&gt;&lt;br&gt;&lt;/div&gt;" style="whiteSpace=wrap;html=1;verticalAlign=top;labelBackgroundColor=default;shadow=0;dashed=0;" vertex="1" parent="1">
          <mxGeometry x="601.3" y="250" width="120" height="70" as="geometry" />
        </mxCell>
        <mxCell id="mQRKh_SeK4KCM8E4RZQr-7" value="&lt;div&gt;DockGE&lt;/div&gt;&lt;div&gt;&lt;br&gt;&lt;/div&gt;" style="whiteSpace=wrap;html=1;verticalAlign=top;labelBackgroundColor=default;shadow=0;dashed=0;" vertex="1" parent="1">
          <mxGeometry x="601.3" y="340" width="120" height="30" as="geometry" />
        </mxCell>
        <mxCell id="mQRKh_SeK4KCM8E4RZQr-8" value="&lt;div&gt;HomeAssistant&lt;/div&gt;&lt;div&gt;MariaDb&lt;/div&gt;&lt;div&gt;Influx&lt;/div&gt;&lt;div&gt;++&lt;br&gt;&lt;/div&gt;" style="whiteSpace=wrap;html=1;verticalAlign=top;labelBackgroundColor=default;shadow=0;dashed=0;" vertex="1" parent="1">
          <mxGeometry x="601.3" y="380" width="120" height="70" as="geometry" />
        </mxCell>
      </root>
    </mxGraphModel>
  </diagram>
</mxfile>
